<?xml version="1.0" encoding="utf-8"?>
<svg
	version="1.1"
	xmlns="http://www.w3.org/2000/svg"
	xmlns:xlink="http://www.w3.orgs/2000/xlink"
	x="0%" y="0%"
	width="100%" height="100%"
	viewBox="0 0 24.0 22.0"
	enable-background="new 0 0 24.0 22.0"
	xml:space="preserve">
	<path
		fill="#FFFFFF"
		stroke="#3F3F3F"
		fill-opacity="0.000"
		stroke-opacity="1"
		fill-rule="nonzero"
		stroke-width="1.1159484"
		stroke-linejoin="miter"
		stroke-linecap="square"
		d="M7.34,8.05L17.93,8.05A1.52 1.52 0 0 1 19.45,9.56L19.45,18.67A1.52 1.52 0 0 1 17.93,20.19L7.34,20.19A1.52 1.52 0 0 1 5.82,18.67L5.82,9.56A1.52 1.52 0 0 1 7.34,8.05z"/>
	<path
		fill="#FFFFFF"
		stroke="#3F3F3F"
		fill-opacity="0.000"
		stroke-opacity="1"
		fill-rule="nonzero"
		stroke-width="1.2324986"
		stroke-linejoin="miter"
		stroke-linecap="square"
		d="M6.44,1.92L18.91,1.92A0.43 0.43 0 0 1 19.34,2.35L19.34,4.93A0.43 0.43 0 0 1 18.91,5.36L6.44,5.36A0.43 0.43 0 0 1 6.01,4.93L6.01,2.35A0.43 0.43 0 0 1 6.44,1.92z"/>
	<path
		fill="#FFFFFF"
		stroke="#3F3F3F"
		fill-opacity="0.000"
		stroke-opacity="1"
		fill-rule="nonzero"
		stroke-width="1.1159484"
		stroke-linejoin="miter"
		stroke-linecap="round"
		d="M8.26,10.03L8.26,18.20"/>
	<path
		fill="#FFFFFF"
		stroke="#3F3F3F"
		fill-opacity="0.000"
		stroke-opacity="1"
		fill-rule="nonzero"
		stroke-width="1.1159484"
		stroke-linejoin="miter"
		stroke-linecap="round"
		d="M12.63,10.03L12.63,18.20"/>
	<path
		fill="#FFFFFF"
		stroke="#3F3F3F"
		fill-opacity="0.000"
		stroke-opacity="1"
		fill-rule="nonzero"
		stroke-width="1.1159484"
		stroke-linejoin="miter"
		stroke-linecap="round"
		d="M17.15,10.03L17.15,18.20"/>
	<path
		fill="#FFFFFF"
		stroke="#3F3F3F"
		fill-opacity="0.000"
		stroke-opacity="1"
		fill-rule="nonzero"
		stroke-width="1.2324986"
		stroke-linejoin="miter"
		stroke-linecap="square"
		d="M8.45,4.25L8.45,3.03"/>
	<path
		fill="#FFFFFF"
		stroke="#3F3F3F"
		fill-opacity="0.000"
		stroke-opacity="1"
		fill-rule="nonzero"
		stroke-width="1.2324986"
		stroke-linejoin="miter"
		stroke-linecap="square"
		d="M12.67,4.25L12.67,3.03"/>
	<path
		fill="#FFFFFF"
		stroke="#3F3F3F"
		fill-opacity="0.000"
		stroke-opacity="1"
		fill-rule="nonzero"
		stroke-width="1.2324986"
		stroke-linejoin="miter"
		stroke-linecap="square"
		d="M17.34,4.25L17.34,3.03"/>
</svg>