<?xml version="1.0" encoding="utf-8"?>
<svg
	version="1.1"
	xmlns="http://www.w3.org/2000/svg"
	xmlns:xlink="http://www.w3.org/1999/xlink"
	x="0%" y="0%"
	width="100%" height="100%"
	viewBox="0 0 24.0 22.0"
	enable-background="new 0 0 24.0 22.0"
	xml:space="preserve">
	<path
		fill="#FFFFFF"
		stroke="#F4AB00"
		fill-opacity="0.000"
		stroke-opacity="1.000"
		fill-rule="nonzero"
		stroke-width="1.7850449"
		stroke-linejoin="round"
		stroke-linecap="square"
		d="M3.21,3.60L20.78,3.60A2.17 2.17 0 0 1 22.94,5.77L22.94,18.76A2.17 2.17 0 0 1 20.78,20.93L3.21,20.93A2.17 2.17 0 0 1 1.05,18.76L1.05,5.77A2.17 2.17 0 0 1 3.21,3.60z"/>
	<path
		fill="#FFFFFF"
		stroke="#F4AB00"
		fill-opacity="0.000"
		stroke-opacity="1.000"
		fill-rule="nonzero"
		stroke-width="1.7850449"
		stroke-linejoin="round"
		stroke-linecap="square"
		d="M1.69,1.21L10.09,1.21A0.75 0.75 0 0 1 10.83,1.96L10.83,6.45A0.75 0.75 0 0 1 10.09,7.20L1.69,7.20A0.75 0.75 0 0 1 0.94,6.45L0.94,1.96A0.75 0.75 0 0 1 1.69,1.21z"/>
</svg>